# xmcd
#
# Track frame offsets:
#	150
#	19377
#	36505
#	52540
#	68905
#	82380
#	98942
#	115677
#	133970
#	147670
#	167485
#	181715
#	197647
#	216182
#	229097
#	243500
#
# Disc length: 3499 seconds
#
# Revision: 1
# Processed by: cddbd v1.5.2PL0 Copyright (c) Steve Scherf et al.
# Submitted via: EasyCDDAExtractor 5.0.7
#
DISCID=e90da910
DTITLE=INTOCABLE - SUEÑOS
DYEAR=1900
DGENRE=Country
TTITLE0=SUEÑA
TTITLE1=VUELVE
TTITLE2=TE SIGO AMANDO
TTITLE3=JAMAS TE DIJE
TTITLE4=MUY A TU MANERA
TTITLE5=ALGUIEN COMO TU
TTITLE6=DESOLACION
TTITLE7=MAS DEBIL QUE TU
TTITLE8=EL PODER DE TUS MANOS
TTITLE9=SI TE VAS
TTITLE10=EN QUE FALLAMOS
TTITLE11=NADA ES IGUAL
TTITLE12=VOY A EXTRAÑARTE
TTITLE13=MAS QUE UN SUEÑO
TTITLE14=ICOMO TE EXTRAÑO
TTITLE15=SUEÑA (VERSION BALADA)
EXTD=
EXTT0=
EXTT1=
EXTT2=
EXTT3=
EXTT4=
EXTT5=
EXTT6=
EXTT7=
EXTT8=
EXTT9=
EXTT10=
EXTT11=
EXTT12=
EXTT13=
EXTT14=
EXTT15=
PLAYORDER=
